<svg width="26" height="26" viewBox="0 0 26 26" fill="none" xmlns="http://www.w3.org/2000/svg">
<g clip-path="url(#clip0_665_72)">
<path d="M13 0C9.47213 0 9.0285 0.01625 7.64237 0.078C6.25625 0.143 5.31213 0.36075 4.485 0.6825C3.617 1.00803 2.83098 1.52002 2.18238 2.18238C1.52002 2.83098 1.00803 3.617 0.6825 4.485C0.36075 5.3105 0.141375 6.25625 0.078 7.6375C0.01625 9.02687 0 9.46888 0 13.0016C0 16.5311 0.01625 16.9731 0.078 18.3593C0.143 19.7437 0.36075 20.6879 0.6825 21.515C1.01562 22.3697 1.45925 23.0945 2.18238 23.8176C2.90388 24.5407 3.62863 24.986 4.48338 25.3175C5.31213 25.6392 6.25463 25.8586 7.63913 25.922C9.02688 25.9837 9.46887 26 13 26C16.5311 26 16.9715 25.9837 18.3593 25.922C19.7421 25.857 20.6895 25.6392 21.5166 25.3175C22.384 24.9918 23.1695 24.4798 23.8176 23.8176C24.5407 23.0945 24.9844 22.3697 25.3175 21.515C25.6376 20.6879 25.857 19.7437 25.922 18.3593C25.9837 16.9731 26 16.5311 26 13C26 9.46887 25.9837 9.02688 25.922 7.63913C25.857 6.25625 25.6376 5.3105 25.3175 4.485C24.992 3.617 24.48 2.83098 23.8176 2.18238C23.169 1.52002 22.383 1.00803 21.515 0.6825C20.6862 0.36075 19.7405 0.141375 18.3576 0.078C16.9699 0.01625 16.5295 0 12.9967 0H13ZM11.8349 2.34325H13.0016C16.4726 2.34325 16.8837 2.35462 18.2536 2.418C19.5211 2.47487 20.2101 2.68775 20.6684 2.86488C21.2745 3.1005 21.7084 3.38325 22.1634 3.83825C22.6184 4.29325 22.8995 4.7255 23.1351 5.33325C23.3139 5.78988 23.5251 6.47888 23.582 7.74638C23.6454 9.11625 23.6584 9.52738 23.6584 12.9967C23.6584 16.4661 23.6454 16.8789 23.582 18.2487C23.5251 19.5162 23.3123 20.2036 23.1351 20.6619C22.9252 21.2256 22.5928 21.7357 22.1617 22.1553C21.7067 22.6103 21.2745 22.8914 20.6667 23.127C20.2118 23.3057 19.5227 23.517 18.2536 23.5755C16.8837 23.6373 16.4726 23.6519 13.0016 23.6519C9.53063 23.6519 9.11788 23.6373 7.748 23.5755C6.4805 23.517 5.79313 23.3057 5.33488 23.127C4.77073 22.9178 4.2601 22.5859 3.83987 22.1553C3.40807 21.7354 3.07503 21.2247 2.86488 20.6602C2.68775 20.2036 2.47487 19.5146 2.418 18.2471C2.35625 16.8773 2.34325 16.4661 2.34325 12.9935C2.34325 9.52087 2.35625 9.113 2.418 7.74312C2.4765 6.47563 2.68775 5.78662 2.8665 5.32837C3.10213 4.72225 3.38487 4.28837 3.83987 3.83337C4.29487 3.37838 4.72713 3.09725 5.33488 2.86162C5.79313 2.68288 6.4805 2.47163 7.748 2.41313C8.94725 2.35788 9.412 2.34162 11.8349 2.34V2.34325ZM19.9404 4.50125C19.7355 4.50125 19.5327 4.5416 19.3434 4.62C19.1541 4.6984 18.9821 4.8133 18.8373 4.95816C18.6924 5.10302 18.5775 5.275 18.4991 5.46426C18.4207 5.65353 18.3804 5.85639 18.3804 6.06125C18.3804 6.26611 18.4207 6.46897 18.4991 6.65824C18.5775 6.8475 18.6924 7.01948 18.8373 7.16434C18.9821 7.3092 19.1541 7.4241 19.3434 7.5025C19.5327 7.5809 19.7355 7.62125 19.9404 7.62125C20.3541 7.62125 20.7509 7.45689 21.0435 7.16434C21.336 6.87178 21.5004 6.47499 21.5004 6.06125C21.5004 5.64751 21.336 5.25072 21.0435 4.95816C20.7509 4.66561 20.3541 4.50125 19.9404 4.50125ZM13.0016 6.3245C12.1161 6.31068 11.2367 6.47316 10.4146 6.80248C9.59248 7.13179 8.84409 7.62137 8.21299 8.24269C7.5819 8.86401 7.08072 9.60467 6.73862 10.4215C6.39652 11.2384 6.22034 12.1152 6.22034 13.0008C6.22034 13.8864 6.39652 14.7632 6.73862 15.5801C7.08072 16.397 7.5819 17.1376 8.21299 17.7589C8.84409 18.3803 9.59248 18.8698 10.4146 19.1991C11.2367 19.5285 12.1161 19.6909 13.0016 19.6771C14.7543 19.6498 16.4258 18.9344 17.6556 17.6853C18.8853 16.4362 19.5746 14.7537 19.5746 13.0008C19.5746 11.248 18.8853 9.56542 17.6556 8.31634C16.4258 7.06727 14.7543 6.35184 13.0016 6.3245ZM13.0016 8.66613C13.5708 8.66613 14.1343 8.77822 14.6601 8.99602C15.1859 9.21382 15.6637 9.53305 16.0661 9.93549C16.4686 10.3379 16.7878 10.8157 17.0056 11.3415C17.2234 11.8673 17.3355 12.4309 17.3355 13C17.3355 13.5691 17.2234 14.1327 17.0056 14.6585C16.7878 15.1843 16.4686 15.6621 16.0661 16.0645C15.6637 16.4669 15.1859 16.7862 14.6601 17.004C14.1343 17.2218 13.5708 17.3339 13.0016 17.3339C11.8522 17.3339 10.7499 16.8773 9.93711 16.0645C9.12435 15.2518 8.66775 14.1494 8.66775 13C8.66775 11.8506 9.12435 10.7482 9.93711 9.93549C10.7499 9.12273 11.8522 8.66613 13.0016 8.66613Z" fill="white"/>
</g>
<defs>
<clipPath id="clip0_665_72">
<rect width="26" height="26" fill="white"/>
</clipPath>
</defs>
</svg>
