<svg width="74" height="83" viewBox="0 0 74 83" fill="none" xmlns="http://www.w3.org/2000/svg">
<path d="M67.625 7.0867H58.4375V3.9474C58.4375 3.11481 58.1148 2.31632 57.5405 1.72758C56.9662 1.13885 56.1872 0.808105 55.375 0.808105C54.5628 0.808105 53.7838 1.13885 53.2095 1.72758C52.6352 2.31632 52.3125 3.11481 52.3125 3.9474V7.0867H21.6875V3.9474C21.6875 3.11481 21.3648 2.31632 20.7905 1.72758C20.2162 1.13885 19.4372 0.808105 18.625 0.808105C17.8128 0.808105 17.0338 1.13885 16.4595 1.72758C15.8852 2.31632 15.5625 3.11481 15.5625 3.9474V7.0867H6.375C4.75055 7.0867 3.19263 7.74819 2.04397 8.92565C0.89531 10.1031 0.25 11.7001 0.25 13.3653V76.1512C0.25 77.8164 0.89531 79.4134 2.04397 80.5908C3.19263 81.7683 4.75055 82.4298 6.375 82.4298H67.625C69.2495 82.4298 70.8074 81.7683 71.956 80.5908C73.1047 79.4134 73.75 77.8164 73.75 76.1512V13.3653C73.75 11.7001 73.1047 10.1031 71.956 8.92565C70.8074 7.74819 69.2495 7.0867 67.625 7.0867ZM15.5625 13.3653V16.5046C15.5625 17.3372 15.8852 18.1357 16.4595 18.7244C17.0338 19.3131 17.8128 19.6439 18.625 19.6439C19.4372 19.6439 20.2162 19.3131 20.7905 18.7244C21.3648 18.1357 21.6875 17.3372 21.6875 16.5046V13.3653H52.3125V16.5046C52.3125 17.3372 52.6352 18.1357 53.2095 18.7244C53.7838 19.3131 54.5628 19.6439 55.375 19.6439C56.1872 19.6439 56.9662 19.3131 57.5405 18.7244C58.1148 18.1357 58.4375 17.3372 58.4375 16.5046V13.3653H67.625V25.9225H6.375V13.3653H15.5625ZM67.625 76.1512H6.375V32.2011H67.625V76.1512ZM30.875 41.6189V66.7333C30.875 67.5659 30.5523 68.3644 29.978 68.9531C29.4037 69.5419 28.6247 69.8726 27.8125 69.8726C27.0003 69.8726 26.2213 69.5419 25.647 68.9531C25.0727 68.3644 24.75 67.5659 24.75 66.7333V46.6968L23.058 47.5679C22.331 47.9405 21.4895 48.0018 20.7184 47.7383C19.9474 47.4749 19.31 46.9082 18.9466 46.1631C18.5831 45.4179 18.5233 44.5552 18.7803 43.7649C19.0373 42.9745 19.5901 42.3212 20.317 41.9486L26.442 38.8093C26.9091 38.5697 27.4282 38.4565 27.95 38.4806C28.4717 38.5046 28.9788 38.665 29.4231 38.9466C29.8673 39.2281 30.2339 39.6215 30.488 40.0892C30.7422 40.557 30.8754 41.0836 30.875 41.6189ZM53.5222 53.5679L46.1875 63.594H52.3125C53.1247 63.594 53.9037 63.9248 54.478 64.5135C55.0523 65.1022 55.375 65.9007 55.375 66.7333C55.375 67.5659 55.0523 68.3644 54.478 68.9531C53.9037 69.5419 53.1247 69.8726 52.3125 69.8726H40.0625C39.4938 69.8726 38.9362 69.7103 38.4524 69.4037C37.9686 69.0972 37.5777 68.6587 37.3233 68.1372C37.069 67.6158 36.9613 67.032 37.0124 66.4514C37.0634 65.8707 37.2713 65.3161 37.6125 64.8497L48.6298 49.7929C48.8804 49.4509 49.0602 49.06 49.1582 48.6443C49.2561 48.2285 49.2701 47.7966 49.1994 47.3751C49.1286 46.9536 48.9746 46.5513 48.7467 46.193C48.5188 45.8347 48.2219 45.5279 47.8742 45.2915C47.5265 45.055 47.1354 44.8939 46.7247 44.818C46.3141 44.7421 45.8927 44.753 45.4863 44.85C45.0799 44.9471 44.6972 45.1282 44.3616 45.3824C44.026 45.6365 43.7446 45.9583 43.5346 46.3279C43.3395 46.6963 43.0743 47.0209 42.7548 47.2826C42.4352 47.5442 42.0678 47.7376 41.6742 47.8514C41.2806 47.9651 40.8687 47.9969 40.463 47.9448C40.0572 47.8927 39.6656 47.7579 39.3115 47.5482C38.9574 47.3385 38.6478 47.0583 38.4011 46.724C38.1543 46.3897 37.9754 46.0081 37.8748 45.6017C37.7743 45.1954 37.7541 44.7725 37.8156 44.358C37.877 43.9436 38.0189 43.546 38.2327 43.1886C39.2443 41.394 40.8052 39.9917 42.6733 39.1989C44.5415 38.4062 46.6126 38.2673 48.5656 38.8037C50.5186 39.3402 52.2445 40.5221 53.4756 42.1663C54.7067 43.8104 55.3743 45.8249 55.375 47.8975C55.3815 49.9449 54.7304 51.9376 53.5222 53.5679Z" fill="white"/>
</svg>
