<svg width="27" height="26" viewBox="0 0 27 26" fill="none" xmlns="http://www.w3.org/2000/svg">
<path d="M6.6935 10.7513C7.9166 13.1338 7.57705 15.6925 5.93469 16.4668C4.29234 17.241 1.9674 15.9451 0.73737 13.5625C-0.492664 11.1799 -0.14618 8.62124 1.49617 7.84366C3.13853 7.06609 5.4704 8.36869 6.6935 10.7513Z" fill="#F0BE8A"/>
<path d="M21.835 6.5277C21.1247 9.41868 18.9106 11.3925 16.8802 10.934C14.8498 10.4754 13.7861 7.76716 14.4929 4.87618C15.1998 1.9852 17.4173 0.0146731 19.4408 0.46992C21.4643 0.925167 22.5384 3.63671 21.835 6.5277Z" fill="#F0BE8A"/>
<path d="M13.166 4.55054C13.949 7.49136 13.0308 10.2594 11.1182 10.7279C9.2056 11.1965 7.01926 9.1894 6.23619 6.24525C5.45313 3.30111 6.36786 0.53641 8.28047 0.0678722C10.1931 -0.400665 12.3829 1.6064 13.166 4.55054Z" fill="#F0BE8A"/>
<path d="M26.5163 14.6457C25.8892 17.1247 23.8518 18.7795 21.9704 18.3442C20.089 17.9089 19.0668 15.5396 19.694 13.0607C20.3211 10.5817 22.355 8.92359 24.2399 9.36222C26.1248 9.80086 27.1296 12.1502 26.5163 14.6457Z" fill="#F0BE8A"/>
<path d="M4.56241 21.0658C4.56241 21.0658 8.08966 13.3532 13.1622 13.3532C13.1622 13.3532 19.846 13.1139 21.6408 23.0263C21.7155 23.3654 21.7135 23.7158 21.6349 24.0541C21.5563 24.3923 21.403 24.7104 21.1852 24.987C20.9675 25.2635 20.6904 25.4921 20.3727 25.6571C20.055 25.8222 19.7041 25.92 19.3436 25.9439C17.4864 26.0834 15.7505 25.0566 13.928 24.9137C11.3328 24.711 6.15972 27.5322 4.43421 24.3189C3.99417 23.5081 4.11544 21.8666 4.56241 21.0658Z" fill="#F0BE8A"/>
</svg>
