<svg width="32" height="32" viewBox="0 0 32 32" fill="none" xmlns="http://www.w3.org/2000/svg">
<path d="M28 11.92C27.9861 11.7975 27.9593 11.6768 27.92 11.56V11.44C27.8559 11.3029 27.7704 11.1768 27.6667 11.0666L19.6667 3.06663C19.5564 2.96291 19.4304 2.8774 19.2933 2.81329C19.2535 2.80764 19.2131 2.80764 19.1733 2.81329C19.0379 2.73561 18.8883 2.68575 18.7333 2.66663H13.3333C12.2725 2.66663 11.2551 3.08805 10.5049 3.8382C9.75476 4.58834 9.33333 5.60576 9.33333 6.66663V7.99996H8C6.93913 7.99996 5.92172 8.42139 5.17157 9.17153C4.42143 9.92168 4 10.9391 4 12V25.3333C4 26.3942 4.42143 27.4116 5.17157 28.1617C5.92172 28.9119 6.93913 29.3333 8 29.3333H18.6667C19.7275 29.3333 20.7449 28.9119 21.4951 28.1617C22.2452 27.4116 22.6667 26.3942 22.6667 25.3333V24H24C25.0609 24 26.0783 23.5785 26.8284 22.8284C27.5786 22.0782 28 21.0608 28 20V12V11.92ZM20 7.21329L23.4533 10.6666H21.3333C20.9797 10.6666 20.6406 10.5262 20.3905 10.2761C20.1405 10.0261 20 9.68692 20 9.33329V7.21329ZM20 25.3333C20 25.6869 19.8595 26.0261 19.6095 26.2761C19.3594 26.5262 19.0203 26.6666 18.6667 26.6666H8C7.64638 26.6666 7.30724 26.5262 7.05719 26.2761C6.80714 26.0261 6.66667 25.6869 6.66667 25.3333V12C6.66667 11.6463 6.80714 11.3072 7.05719 11.0572C7.30724 10.8071 7.64638 10.6666 8 10.6666H9.33333V20C9.33333 21.0608 9.75476 22.0782 10.5049 22.8284C11.2551 23.5785 12.2725 24 13.3333 24H20V25.3333ZM25.3333 20C25.3333 20.3536 25.1929 20.6927 24.9428 20.9428C24.6928 21.1928 24.3536 21.3333 24 21.3333H13.3333C12.9797 21.3333 12.6406 21.1928 12.3905 20.9428C12.1405 20.6927 12 20.3536 12 20V6.66663C12 6.313 12.1405 5.97387 12.3905 5.72382C12.6406 5.47377 12.9797 5.33329 13.3333 5.33329H17.3333V9.33329C17.3333 10.3942 17.7548 11.4116 18.5049 12.1617C19.2551 12.9119 20.2725 13.3333 21.3333 13.3333H25.3333V20Z" fill="white"/>
</svg>
